<?xml version="1.0" encoding="UTF-8" standalone="no"?>
<!-- Created with Inkscape (http://www.inkscape.org/) -->

<svg
   xmlns:dc="http://purl.org/dc/elements/1.1/"
   xmlns:cc="http://creativecommons.org/ns#"
   xmlns:rdf="http://www.w3.org/1999/02/22-rdf-syntax-ns#"
   xmlns:svg="http://www.w3.org/2000/svg"
   xmlns="http://www.w3.org/2000/svg"
   xmlns:sodipodi="http://sodipodi.sourceforge.net/DTD/sodipodi-0.dtd"
   xmlns:inkscape="http://www.inkscape.org/namespaces/inkscape"
   width="210mm"
   height="297mm"
   viewBox="0 0 210 297"
   id="svg2"
   version="1.1"
   inkscape:version="0.91+devel+osxmenu r12913"
   inkscape:export-filename="/Volumes/Donnees/Desktop/TP1/images/poly-music.png"
   inkscape:export-xdpi="96"
   inkscape:export-ydpi="96"
   sodipodi:docname="poly-music.svg">
  <defs
     id="defs4" />
  <sodipodi:namedview
     id="base"
     pagecolor="#ffffff"
     bordercolor="#666666"
     borderopacity="1.0"
     inkscape:pageopacity="0.0"
     inkscape:pageshadow="2"
     inkscape:zoom="1"
     inkscape:cx="217.36927"
     inkscape:cy="840"
     inkscape:document-units="mm"
     inkscape:current-layer="text4141"
     showgrid="false"
     inkscape:window-width="1536"
     inkscape:window-height="864"
     inkscape:window-x="424"
     inkscape:window-y="216"
     inkscape:window-maximized="0" />
  <metadata
     id="metadata7">
    <rdf:RDF>
      <cc:Work
         rdf:about="">
        <dc:format>image/svg+xml</dc:format>
        <dc:type
           rdf:resource="http://purl.org/dc/dcmitype/StillImage" />
        <dc:title></dc:title>
      </cc:Work>
    </rdf:RDF>
  </metadata>
  <g
     inkscape:label="Calque 1"
     inkscape:groupmode="layer"
     id="layer1">
    <g
       style="font-style:normal;font-weight:normal;font-size:10.58333302px;line-height:125%;font-family:sans-serif;letter-spacing:0px;word-spacing:0px;fill:#000000;fill-opacity:1;stroke:none;stroke-width:0.26458332px;stroke-linecap:butt;stroke-linejoin:miter;stroke-opacity:1"
       id="text4141">
      <path
         d="m 13.29738,8.1731846 q 0,-0.594279 -0.315227,-0.8474935 -0.310058,-0.2532145 -0.873331,-0.2532145 l -1.483114,0 0,2.2427571 1.483114,0 q 0.563273,0 0.873331,-0.2738851 0.315227,-0.2738851 0.315227,-0.868164 z m 1.576131,-0.010335 q 0,1.3487548 -0.682129,1.9068607 -0.682129,0.558105 -1.948202,0.558105 l -1.617472,0 0,2.738851 -1.5812986,0 0,-7.6171061 3.3176266,0 q 1.147217,0 1.829346,0.5891114 0.682129,0.5891113 0.682129,1.824178 z"
         style="font-style:normal;font-variant:normal;font-weight:bold;font-stretch:normal;font-family:sans-serif;-inkscape-font-specification:'sans-serif Bold';letter-spacing:-0.73554158px;fill:#1471cc;fill-opacity:1"
         id="path4450" />
      <path
         d="m 18.60798,12.229784 q 0.945679,0 1.498617,-0.697631 0.558105,-0.697632 0.558105,-1.9843754 0,-1.2815755 -0.558105,-1.9792073 -0.552938,-0.7027994 -1.498617,-0.7027994 -0.945678,0 -1.508951,0.6976318 -0.563274,0.6976318 -0.563274,1.9843749 0,1.2867434 0.563274,1.9843754 0.563273,0.697631 1.508951,0.697631 z m 3.648356,-2.6820064 q 0,2.0515544 -1.152384,3.1419274 -0.862997,0.888834 -2.495972,0.888834 -1.632975,0 -2.495971,-0.888834 -1.157552,-1.090373 -1.157552,-3.1419274 0,-2.0928954 1.157552,-3.141927 0.862996,-0.8888346 2.495971,-0.8888346 1.632975,0 2.495972,0.8888346 1.152384,1.0490316 1.152384,3.141927 z M 18.60798,5.517016 l 0,0 z"
         style="font-style:normal;font-variant:normal;font-weight:bold;font-stretch:normal;font-family:sans-serif;-inkscape-font-specification:'sans-serif Bold';letter-spacing:-0.73554158px;fill:#1471cc;fill-opacity:1"
         id="path4452" />
      <path
         d="m 22.730023,5.7495599 1.591634,0 0,6.2476801 3.77238,0 0,1.369426 -5.364014,0 0,-7.6171061 z"
         style="font-style:normal;font-variant:normal;font-weight:bold;font-stretch:normal;font-family:sans-serif;-inkscape-font-specification:'sans-serif Bold';letter-spacing:-0.73554158px;fill:#1471cc;fill-opacity:1"
         id="path4454" />
      <path
         d="m 32.810359,5.7495599 1.803507,0 -2.547648,4.7542321 0,2.862874 -1.591634,0 0,-2.862874 -2.635498,-4.7542321 1.875854,0 1.581299,3.3176269 1.51412,-3.3176269 z m -1.581299,0 0,0 z"
         style="font-style:normal;font-variant:normal;font-weight:bold;font-stretch:normal;font-family:sans-serif;-inkscape-font-specification:'sans-serif Bold';letter-spacing:-0.73554158px;fill:#1471cc;fill-opacity:1"
         id="path4456" />
      <path
         d="m 34.751656,5.7753982 1.472778,0 2.180746,6.4182128 2.165242,-6.4182128 1.457276,0 0,7.5912678 -0.976685,0 0,-4.4803467 q 0,-0.2325439 0.01034,-0.7699788 0.01034,-0.5374349 0.01034,-1.1523844 l -2.165243,6.4027099 -1.018025,0 -2.180746,-6.4027099 0,0.2325439 q 0,0.2790527 0.01033,0.8526611 0.0155,0.5684408 0.0155,0.8371582 l 0,4.4803467 -0.981852,0 0,-7.5912678 z"
         style="font-style:normal;font-variant:normal;font-weight:normal;font-stretch:normal;font-family:sans-serif;-inkscape-font-specification:sans-serif;stroke-width:0.26458332px;fill:#ffffff"
         id="path4458" />
      <path
         d="m 43.703045,5.7753982 0,4.6922198 q 0,0.826823 0.310059,1.374593 0.45992,0.826823 1.550293,0.826823 1.307413,0 1.777669,-0.894002 0.253214,-0.485759 0.253214,-1.307414 l 0,-4.6922198 1.043864,0 0,4.2633058 q 0,1.400431 -0.377238,2.154907 -0.692464,1.374593 -2.614827,1.374593 -1.922363,0 -2.60966,-1.374593 -0.377238,-0.754476 -0.377238,-2.154907 l 0,-4.2633058 1.043864,0 z m 1.948202,0 0,0 z"
         style="font-style:normal;font-variant:normal;font-weight:normal;font-stretch:normal;font-family:sans-serif;-inkscape-font-specification:sans-serif;fill:#ffffff;stroke-width:0.26458332px"
         id="path4460"
         inkscape:connector-curvature="0" />
      <path
         d="m 49.869079,10.917203 q 0.03617,0.645955 0.304891,1.049032 0.511597,0.754475 1.803507,0.754475 0.578776,0 1.0542,-0.165364 0.91984,-0.320394 0.91984,-1.147217 0,-0.620117 -0.387573,-0.883667 -0.392741,-0.258382 -1.229899,-0.449585 L 51.305684,9.8423333 Q 50.297993,9.614957 49.879414,9.3410719 49.155944,8.8656487 49.155944,7.91997 q 0,-1.0231933 0.707967,-1.679484 0.707967,-0.6562906 2.005046,-0.6562906 1.193725,0 2.025716,0.578776 0.837158,0.5736084 0.837158,1.8396809 l -0.966349,0 Q 53.687967,7.3928704 53.434753,7.0673089 52.964497,6.47303 51.837951,6.47303 q -0.909505,0 -1.307414,0.3824056 -0.397908,0.3824056 -0.397908,0.8888346 0,0.5581054 0.465088,0.8164876 0.304891,0.1653646 1.37976,0.4134114 l 1.064535,0.2428793 q 0.769979,0.1756998 1.188558,0.4805908 0.72347,0.5322667 0.72347,1.5451257 0,1.260904 -0.919841,1.803507 -0.914673,0.542602 -2.129069,0.542602 -1.415934,0 -2.216919,-0.72347 -0.800984,-0.718302 -0.785481,-1.948201 l 0.966349,0 z m 2.077392,-5.3485106 0,0 z"
         style="font-style:normal;font-variant:normal;font-weight:normal;font-stretch:normal;font-family:sans-serif;-inkscape-font-specification:sans-serif;fill:#ffffff;stroke-width:0.26458332px"
         id="path4462"
         inkscape:connector-curvature="0" />
      <path
         d="m 55.804631,5.7753982 1.038696,0 0,7.5912678 -1.038696,0 0,-7.5912678 z"
         style="font-style:normal;font-variant:normal;font-weight:normal;font-stretch:normal;font-family:sans-serif;-inkscape-font-specification:sans-serif;fill:#ffffff;stroke-width:0.26458332px"
         id="path4464"
         inkscape:connector-curvature="0" />
      <path
         d="m 61.176914,5.5686924 q 1.441772,0 2.237589,0.7596436 0.795817,0.7596435 0.883667,1.7259928 l -1.002522,0 Q 63.125115,7.3205234 62.613519,6.8916091 62.10709,6.4626947 61.187249,6.4626947 q -1.121378,0 -1.813843,0.7906494 -0.687296,0.7854817 -0.687296,2.4132893 0,1.3332516 0.620117,2.1652426 0.625285,0.826823 1.860352,0.826823 1.136881,0 1.73116,-0.873332 0.315226,-0.45992 0.470256,-1.209228 l 1.002522,0 q -0.134358,1.198893 -0.888834,2.010213 -0.904338,0.976684 -2.439128,0.976684 -1.322916,0 -2.222086,-0.800984 -1.183391,-1.059367 -1.183391,-3.2711185 0,-1.679484 0.888835,-2.7543537 0.961182,-1.1678874 2.651001,-1.1678874 z m -0.206706,0 0,0 z"
         style="font-style:normal;font-variant:normal;font-weight:normal;font-stretch:normal;font-family:sans-serif;-inkscape-font-specification:sans-serif;fill:#ffffff;stroke-width:0.26458332px"
         id="path4466"
         inkscape:connector-curvature="0" />
    </g>
  </g>
</svg>
