<svg xmlns="http://www.w3.org/2000/svg" xmlns:xlink="http://www.w3.org/1999/xlink" xmlns:lucid="lucid" width="1197.04" height="1096"><g transform="translate(-83.45928354131047 -84.5)" lucid:page-tab-id="0_0"><path d="M0 0h1500v1500H0z" fill="#fff"/><path d="M360 186a6 6 0 0 1 6-6h888a6 6 0 0 1 6 6v968a6 6 0 0 1-6 6H366a6 6 0 0 1-6-6z" stroke="#3a414a" fill="#fff"/><path d="M592.83 340.27c22.1 0 40 17.9 40 40s-17.9 40-40 40h-80c-22.1 0-40-17.9-40-40s17.9-40 40-40z" stroke="#3a414a" fill="#fff"/><use xlink:href="#a" transform="matrix(1,0,0,1,477.83110423411637,345.2660876908999) translate(10.313641975308636 26.52777777777778)"/><use xlink:href="#b" transform="matrix(1,0,0,1,477.83110423411637,345.2660876908999) translate(111.36302469135804 26.52777777777778)"/><use xlink:href="#c" transform="matrix(1,0,0,1,477.83110423411637,345.2660876908999) translate(20.74574074074073 53.19444444444445)"/><path d="M1163.62 500.27c22.1 0 40 17.9 40 40s-17.9 40-40 40h-80c-22.1 0-40-17.9-40-40s17.9-40 40-40z" stroke="#3a414a" fill="#fff"/><use xlink:href="#d" transform="matrix(1,0,0,1,1048.619777368471,505.2660876908999) translate(12.746913580246904 39.65277777777778)"/><path d="M592.83 560.27c22.1 0 40 17.9 40 40s-17.9 40-40 40h-80c-22.1 0-40-17.9-40-40s17.9-40 40-40z" stroke="#3a414a" fill="#fff"/><use xlink:href="#e" transform="matrix(1,0,0,1,477.8311042341164,565.2660876908999) translate(18.276604938271603 26.52777777777778)"/><use xlink:href="#f" transform="matrix(1,0,0,1,477.8311042341164,565.2660876908999) translate(94.69635802469136 26.52777777777778)"/><use xlink:href="#g" transform="matrix(1,0,0,1,477.8311042341164,565.2660876908999) translate(26.301296296296286 53.19444444444445)"/><path d="M578.62 660.27c24.85 0 45 20.14 45 45 0 24.85-20.15 45-45 45h-70c-24.85 0-45-20.15-45-45 0-24.86 20.15-45 45-45z" stroke="#3a414a" fill="#fff"/><use xlink:href="#h" transform="matrix(1,0,0,1,468.619777368471,665.2660876908999) translate(15.864197530864189 17.77777777777778)"/><use xlink:href="#i" transform="matrix(1,0,0,1,468.619777368471,665.2660876908999) translate(48.20987654320988 44.44444444444444)"/><use xlink:href="#g" transform="matrix(1,0,0,1,468.619777368471,665.2660876908999) translate(26.29629629629629 71.11111111111111)"/><path d="M1042.45 539.47l-.36.93-4.7-1.83.36-.93zm-9.4-3.67l-.35.94-9.4-3.67.37-.93zm-14.07-5.5l-.37.94-9.38-3.67.37-.93zm-14.1-5.5l-.35.94-9.4-3.67.37-.93zm-14.07-5.5l-.36.94-9.4-3.67.38-.93zm-14.08-5.5l-.36.94-9.4-3.67.37-.93zm-14.08-5.5l-.37.94-9.4-3.67.38-.93zm-14.1-5.5l-.35.94-9.4-3.67.36-.93zm-14.07-5.5l-.37.94-9.4-3.67.38-.93zm-14.1-5.5l-.35.94-9.4-3.67.37-.93zm-14.07-5.5l-.37.94-9.4-3.67.38-.93zm-14.1-5.5l-.35.94-9.4-3.67.37-.93zm-14.08-5.5l-.36.94-9.4-3.67.38-.93zm-70.42-27.5l-.37.94-9.38-3.67.36-.93zm-14.1-5.5l-.35.94-9.4-3.66.37-.94zm-14.07-5.5l-.37.94-9.4-3.66.38-.94zm-14.1-5.5l-.35.94-9.4-3.66.37-.94zm-14.07-5.5l-.37.94-9.4-3.66.37-.93zm-14.1-5.5l-.35.94-9.38-3.66.36-.93zm-14.07-5.5l-.38.94-9.4-3.66.38-.93zm-14.1-5.5l-.36.94-9.4-3.66.37-.93zm-14.08-5.5l-.37.94-9.4-3.66.38-.93zm-14.1-5.5l-.35.95-9.4-3.67.37-.93zm-14.07-5.5l-.37.95-9.4-3.67.38-.93zm-14.1-5.5l-.35.95-9.4-3.67.37-.93zm-14.08-5.5l-.36.95-4.68-1.84.36-.92z" stroke="#333" stroke-width=".05" fill="#333"/><path d="M634 380l-.37.92-.33-.13.03-.53-.02-.55z" fill="#333"/><path d="M634.02 379.97l-.38.98-.37-.14.04-.53v-.58zm-.66.3l-.03.5.28.12.36-.9-.62-.24zM1043.12 540.27l-20.57 3.36-.16-1 18.9-3.08-11.82-15.08.8-.6z" stroke="#333" stroke-width=".05" fill="#333"/><use xlink:href="#j" transform="matrix(1,0,0,1,809.6081568506763,449.5994210242332) translate(0 14.222222222222223)"/><path d="M633.83 380.27h58.4a6 6 0 0 0 6-6v-68a6 6 0 0 1 6-6h42.5" stroke="#3a414a" fill="none"/><path d="M633.84 380.77h-.54l.03-.5-.02-.5h.54z" stroke="#3a414a" stroke-width=".05" fill="#3a414a"/><path d="M761.5 300.27l-14.26 4.63v-9.27z" stroke="#3a414a" fill="#3a414a"/><path d="M883.62 260.27c22.1 0 40 17.9 40 40s-17.9 40-40 40h-80c-22.1 0-40-17.9-40-40s17.9-40 40-40z" stroke="#3a414a" fill="#fff"/><use xlink:href="#a" transform="matrix(1,0,0,1,768.619777368471,265.2660876908999) translate(10.313641975308636 26.52777777777778)"/><use xlink:href="#b" transform="matrix(1,0,0,1,768.619777368471,265.2660876908999) translate(111.36302469135804 26.52777777777778)"/><use xlink:href="#k" transform="matrix(1,0,0,1,768.619777368471,265.2660876908999) translate(39.91240740740741 53.19444444444445)"/><path d="M638.76 599.98l-4.86.7-.15-.98 4.87-.7zm14.6-2.14l-9.74 1.42-.14-1 9.72-1.4zm14.57-2.13l-9.72 1.43-.14-1 9.73-1.4zm14.6-2.13l-9.74 1.42-.15-1 9.72-1.42zm14.57-2.14l-9.72 1.43-.15-1 9.73-1.4zm14.6-2.13l-9.74 1.42-.14-1 9.72-1.4zm14.57-2.14l-9.72 1.43-.14-1 9.73-1.43zm14.6-2.13l-9.74 1.42-.14-1 9.7-1.4zm14.57-2.14l-9.72 1.42-.14-1 9.72-1.42zm14.6-2.14l-9.73 1.42-.14-1 9.73-1.4zm14.58-2.14l-9.73 1.42-.15-1 9.72-1.4zm14.58-2.13l-9.72 1.4-.15-.98 9.73-1.42zm10.4-1.54l-5.54.8-.14-.98 5.7-.83zm62.53-9.15l-5.3.78v-1l5.15-.76zm14.58-2.13l-9.7 1.43-.15-1 9.72-1.42zm14.6-2.13l-9.72 1.42-.15-1 9.72-1.4zm14.6-2.14l-9.74 1.42-.14-1 9.72-1.4zm14.57-2.13l-9.72 1.42-.15-1 9.73-1.42zm14.6-2.14l-9.74 1.42-.14-1 9.7-1.4zm14.57-2.14l-9.72 1.42-.15-1 9.73-1.4zm14.6-2.14l-9.74 1.42-.14-1 9.72-1.4zm14.57-2.14l-9.7 1.43-.16-1 9.73-1.42zm14.6-2.13l-9.73 1.4-.14-.98 9.72-1.42zm14.58-2.15l-9.72 1.43-.14-1 9.72-1.42zm14.6-2.13l-9.73 1.42-.15-1 9.72-1.4zm9.7-1.43l-4.85.7-.14-1 4.85-.7z" stroke="#333" stroke-width=".05" fill="#333"/><path d="M633.9 600.7l-.6.08.03-.5-.02-.52.47-.06z" fill="#333"/><path d="M633.94 600.7l-.67.1.04-.53v-.53l.5-.07zm-.6-.92l.02.5-.03.47.55-.1-.13-.92zM1043.12 540.27l-16.22 13.1-.63-.78 14.9-12.05-17.72-7.26.38-.93z" stroke="#333" stroke-width=".05" fill="#333"/><use xlink:href="#j" transform="matrix(1,0,0,1,809.6081568506763,559.5994210242333) translate(0 14.222222222222223)"/><path d="M629.4 703.72l-4.63 1.83-.37-.93 4.64-1.83zm13.93-5.48l-9.28 3.65-.37-.94 9.3-3.65zm13.92-5.5l-9.28 3.67-.36-.92 9.3-3.66zm13.93-5.47l-9.28 3.66-.37-.93 9.28-3.66zm13.92-5.48l-9.28 3.65-.37-.94 9.28-3.64zm13.92-5.5l-9.28 3.66-.36-.93 9.28-3.65zm13.93-5.48l-9.3 3.66-.35-.93 9.28-3.66zm13.92-5.48L717.6 669l-.38-.93 9.28-3.66zm13.92-5.48l-9.3 3.65-.36-.92 9.3-3.65zm13.92-5.5l-9.3 3.67-.35-.93 9.28-3.65zm13.92-5.47l-9.28 3.65-.37-.93 9.27-3.66zm13.92-5.5l-9.28 3.67-.37-.94 9.3-3.65zm13.93-5.47l-9.3 3.65-.36-.93 9.28-3.65zm4.63-1.83l-.37-.93 4.4-1.74h2.74zm64.97-25.6l-4.03 1.6h-2.73l6.4-2.52zm13.92-5.47l-9.28 3.65-.37-.92 9.3-3.66zm13.93-5.48l-9.3 3.65-.35-.93 9.28-3.65zm13.92-5.48l-9.28 3.65-.38-.93 9.28-3.67zm13.92-5.5l-9.3 3.67-.36-.93 9.28-3.65zm13.9-5.47l-9.27 3.65-.36-.93 9.28-3.65zm13.94-5.48l-9.28 3.65-.37-.93 9.27-3.65zm13.92-5.5l-9.28 3.67-.37-.94 9.3-3.66zm13.92-5.47l-9.28 3.66-.37-.92 9.3-3.66zm13.93-5.48l-9.28 3.65-.36-.93 9.28-3.66zm13.93-5.5l-9.28 3.67-.37-.93 9.28-3.64zm13.92-5.47l-9.28 3.66-.37-.93 9.28-3.66zm13.92-5.48l-9.28 3.65-.37-.93 9.28-3.65zm9.3-3.66l-4.65 1.83-.37-.94 4.64-1.83z" stroke="#333" stroke-width=".05" fill="#333"/><path d="M624.78 705.54l-.7.28.04-.54v-.55l.3-.12z" fill="#333"/><path d="M624.8 705.56l-.74.3.04-.58v-.57l.33-.12zm-.66-.8v.52l-.02.5.63-.25-.35-.88zM1043.12 540.27l-12.8 16.44-.8-.6 11.77-15.1-18.92-3.04.16-1z" stroke="#333" stroke-width=".05" fill="#333"/><use xlink:href="#j" transform="matrix(1,0,0,1,805.00234472224,612.0994210242333) translate(0 14.222222222222223)"/><path d="M1103.62 620.27c22.1 0 40 17.9 40 40s-17.9 40-40 40h-80c-22.1 0-40-17.9-40-40s17.9-40 40-40z" stroke="#3a414a" fill="#fff"/><use xlink:href="#l" transform="matrix(1,0,0,1,988.619777368471,625.2660876908999) translate(19.850679012345687 26.52777777777778)"/><use xlink:href="#i" transform="matrix(1,0,0,1,988.619777368471,625.2660876908999) translate(76.57907407407407 26.52777777777778)"/><use xlink:href="#g" transform="matrix(1,0,0,1,988.619777368471,625.2660876908999) translate(26.301296296296286 53.19444444444445)"/><path d="M587.83 875.27c24.85 0 45 20.14 45 45 0 24.85-20.15 45-45 45h-70c-24.85 0-45-20.15-45-45 0-24.86 20.15-45 45-45z" stroke="#3a414a" fill="#fff"/><use xlink:href="#m" transform="matrix(1,0,0,1,477.8311042341164,880.2660876908999) translate(23.245740740740747 17.77777777777778)"/><use xlink:href="#n" transform="matrix(1,0,0,1,477.8311042341164,880.2660876908999) translate(102.0729012345679 17.77777777777778)"/><use xlink:href="#o" transform="matrix(1,0,0,1,477.8311042341164,880.2660876908999) translate(29.351851851851862 44.44444444444444)"/><use xlink:href="#p" transform="matrix(1,0,0,1,477.8311042341164,880.2660876908999) translate(114.4753086419753 44.44444444444444)"/><use xlink:href="#q" transform="matrix(1,0,0,1,477.8311042341164,880.2660876908999) translate(19.48030864197531 71.11111111111111)"/><path d="M594.72 1000.27c22.1 0 40 17.9 40 40s-17.9 40-40 40h-80c-22.1 0-40-17.9-40-40s17.9-40 40-40z" stroke="#3a414a" fill="#fff"/><use xlink:href="#r" transform="matrix(1,0,0,1,479.7230699054693,1005.2660876908999) translate(7.196358024691358 26.52777777777778)"/><use xlink:href="#n" transform="matrix(1,0,0,1,479.7230699054693,1005.2660876908999) translate(118.12228395061729 26.52777777777778)"/><use xlink:href="#s" transform="matrix(1,0,0,1,479.7230699054693,1005.2660876908999) translate(38.6161111111111 53.19444444444445)"/><path d="M1083.62 900.27c22.1 0 40 17.9 40 40s-17.9 40-40 40h-80c-22.1 0-40-17.9-40-40s17.9-40 40-40z" stroke="#3a414a" fill="#fff"/><use xlink:href="#d" transform="matrix(1,0,0,1,968.619777368471,905.2660876908999) translate(12.746913580246904 39.65277777777778)"/><path d="M962.24 939.7l-.06 1-4.97-.3.07-1zm-9.95-.6l-.07 1-9.95-.6.06-1zm-14.93-.9l-.07 1-9.95-.6.06-1zm-14.93-.9l-.06 1-9.95-.6.06-1zm-14.93-.9l-.05 1-9.95-.6.06-1zm-14.9-.9l-.08 1-9.95-.62.06-1zm-14.94-.92l-.06 1-9.95-.6.06-1zm-14.93-.9l-.06 1-9.95-.6.06-1zm-14.92-.9l-.05 1-9.96-.6.06-1zm-14.92-.9l-.06 1-5.98-.38v-1zm-63.27-3.85v1l-6.44-.4.06-1zm-11.35-.7l-.06 1-9.96-.6.06-1zm-14.93-.9l-.06 1-9.95-.6.07-1zm-14.93-.9l-.07 1-9.95-.6.06-1zm-14.93-.9l-.06 1-9.94-.6.06-1zm-14.93-.9l-.06 1-9.95-.62.06-.98zm-14.92-.9l-.07.98-9.95-.6.06-1zm-14.93-.92l-.07 1-9.95-.6.06-1zm-14.94-.9l-.06 1-9.95-.6.06-1zm-14.92-.9l-.07 1-4.97-.3.06-1z" stroke="#333" stroke-width=".05" fill="#333"/><path d="M633.87 919.8l-.06 1-.5-.03.03-.5v-.5z" fill="#333"/><path d="M633.9 919.77l-.06 1.05-.56-.03.03-.52v-.54zm-.54.5l-.03.47.46.03.05-.95-.5-.03zM963.12 940.27l-18.55 9.5-.46-.9 17.06-8.72-15.87-10.73.55-.83z" stroke="#333" stroke-width=".05" fill="#333"/><use xlink:href="#j" transform="matrix(1,0,0,1,769.6080081550629,919.5994210242333) translate(0 14.222222222222223)"/><path d="M640.58 1039.15l-4.73 1.45-.3-.96 4.74-1.44zm14.2-4.33l-9.47 2.9-.28-.96 9.47-2.9zm14.2-4.33l-9.47 2.88-.28-.96 9.46-2.88zm14.2-4.34l-9.47 2.9-.28-.96 9.46-2.9zm14.2-4.33l-9.47 2.9-.3-.97 9.48-2.88zm14.2-4.33l-9.48 2.9-.3-.96 9.48-2.9zm14.2-4.33l-9.48 2.9-.3-.96 9.48-2.88zm14.18-4.32l-9.46 2.88-.3-.95 9.47-2.9zm14.2-4.33l-9.46 2.88-.3-.95 9.47-2.9zm14.2-4.33l-9.47 2.87-.3-.95 9.47-2.9zm71-21.66l-9.48 2.88-.3-.95 9.48-2.9zm14.2-4.33l-9.48 2.9-.3-.96 9.48-2.9zm14.18-4.32l-9.46 2.88-.3-.95 9.47-2.88zm14.2-4.33l-9.46 2.88-.3-.95 9.47-2.9zm14.2-4.33l-9.47 2.88-.3-.95 9.48-2.9zm14.2-4.33l-9.47 2.87-.3-.95 9.48-2.9zm14.2-4.34l-9.47 2.88-.3-.95 9.47-2.9zm14.2-4.33l-9.47 2.88-.3-.94 9.47-2.9zm14.2-4.33l-9.48 2.88-.3-.95 9.48-2.9zm9.46-2.9l-4.74 1.45-.3-.95 4.74-1.45z" stroke="#333" stroke-width=".05" fill="#333"/><path d="M635.86 1040.6l-.67.2.02-.53v-.52l.35-.1z" fill="#333"/><path d="M635.9 1040.6l-.74.23.04-.56-.02-.54.4-.12zm-.67-.83l.02.5-.03.5.6-.2-.27-.9zM963.12 940.27l-14.07 15.38-.73-.67 12.92-14.14-18.6-4.52.22-.97z" stroke="#333" stroke-width=".05" fill="#333"/><use xlink:href="#j" transform="matrix(1,0,0,1,770.5541396863528,979.5994210242333) translate(0 14.222222222222223)"/><path d="M587.37 760.27c22.1 0 40 17.9 40 40s-17.9 40-40 40h-80c-22.1 0-40-17.9-40-40s17.9-40 40-40z" stroke="#3a414a" fill="#fff"/><use xlink:href="#t" transform="matrix(1,0,0,1,472.37099614258193,765.2660876908999) translate(23.89388888888889 24.34027777777778)"/><use xlink:href="#u" transform="matrix(1,0,0,1,472.37099614258193,765.2660876908999) translate(4.696358024691344 51.00694444444445)"/><use xlink:href="#g" transform="matrix(1,0,0,1,472.37099614258193,765.2660876908999) translate(47.90623456790122 51.00694444444445)"/><path d="M626.5 705l-.13-1 186-23.07h8.13zm356.18-44.18l-118.57 14.7v-1l118.46-14.7z" stroke="#333" stroke-width=".05" fill="#333"/><path d="M983.12 660.26l.02.5-.47.07-.12-1 .6-.07z" fill="#333"/><path d="M983.14 660.26l.02.53-.5.05-.14-1.04.66-.07zm-.56-.4l.1.94.43-.05v-.5l.02-.46zM626.5 705l-.5.05-.13-1 .5-.06z" stroke="#333" stroke-width=".05" fill="#333"/><path d="M462.63 705.35L264.6 740.18" stroke="#333" fill="none"/><path d="M463.12 705.25v.52l-.42.08-.17-1 .62-.1z" stroke="#333" stroke-width=".05" fill="#333"/><path d="M264.63 740.18l-.5.1M471.92 600.54L264.54 740" stroke="#333" fill="none"/><path d="M472.33 600.26l.02.6-.17.1-.55-.82.74-.5z" stroke="#333" stroke-width=".05" fill="#333"/><path d="M264.55 739.98l-.43.3M471.85 380.14l-231.37-60" stroke="#333" fill="none"/><path d="M472.36 379.76l-.03.5.02.53-.64-.18.26-.97z" stroke="#333" stroke-width=".05" fill="#333"/><path d="M240.5 320.13l-.5-.13M466.4 800.12l-201.8-59.7" stroke="#333" fill="none"/><path d="M466.9 799.75l-.03.5.02.54-.66-.2.28-.96z" stroke="#333" stroke-width=".05" fill="#333"/><path d="M264.6 740.4l-.48-.13M474.37 935.25L240.5 979.9" stroke="#333" fill="none"/><path d="M475 935.64l-.55.1-.2-.98.46-.1z" stroke="#333" stroke-width=".05" fill="#333"/><path d="M240.5 979.9l-.5.1M473.74 1040.14l-233.26-60.02" stroke="#333" fill="none"/><path d="M474.25 1039.76l-.03.5.02.53-.64-.18.25-.97z" stroke="#333" stroke-width=".05" fill="#333"/><path d="M240.5 980.13l-.5-.13" stroke="#333" fill="none"/><path d="M1103.62 700.27c22.1 0 40 17.9 40 40s-17.9 40-40 40h-80c-22.1 0-40-17.9-40-40s17.9-40 40-40z" stroke="#3a414a" fill="#fff"/><use xlink:href="#t" transform="matrix(1,0,0,1,988.619777368471,705.2660876908999) translate(23.89388888888889 24.34027777777778)"/><use xlink:href="#u" transform="matrix(1,0,0,1,988.619777368471,705.2660876908999) translate(4.696358024691344 51.00694444444445)"/><use xlink:href="#g" transform="matrix(1,0,0,1,988.619777368471,705.2660876908999) translate(47.90623456790122 51.00694444444445)"/><path d="M982.62 740.22l-358-34.9" stroke="#333" fill="none"/><path d="M983.15 739.77l-.03.5.02.5-.58-.06.1-.98zM624.68 704.82l-.1 1-.5-.05.04-.5v-.5zM632.74 797.8l-4.18 2.63-.53-.85 4.18-2.62zm12.55-7.85l-8.38 5.24-.53-.86 8.36-5.24zm12.54-7.86l-8.37 5.23-.53-.85 8.37-5.23zm12.54-7.86l-8.36 5.24-.53-.85 8.35-5.24zm12.55-7.86l-8.36 5.24-.53-.85 8.36-5.24zm12.55-7.86l-8.37 5.24-.52-.85 8.37-5.22zm12.54-7.85l-8.36 5.24-.53-.84 8.37-5.24zm12.55-7.86l-8.36 5.25-.52-.85 8.36-5.24zm12.55-7.84l-8.37 5.23-.53-.85 8.37-5.24zm12.55-7.86l-8.37 5.24-.53-.85 8.37-5.25zm12.54-7.86l-8.35 5.24-.53-.85 8.36-5.23zm12.56-7.85l-8.36 5.23-.53-.85 8.36-5.24zm12.55-7.87l-8.36 5.24-.53-.85 8.38-5.24zm12.56-7.85l-8.37 5.23-.54-.83 8.36-5.24zm12.54-7.86l-8.36 5.24-.53-.85 8.37-5.23zm4.18-2.62l-.53-.85 5.47-3.42h1.88zm46-28.8l-5.1 3.2h-1.9l6.48-4.05zm12.56-7.86l-8.37 5.24-.53-.85 8.37-5.24zm12.54-7.86l-8.36 5.24-.53-.85 8.35-5.23zm12.55-7.85l-8.36 5.24-.53-.85 8.36-5.24zm12.55-7.86l-8.37 5.24-.52-.84 8.37-5.24zm12.55-7.86l-8.37 5.25-.53-.85 8.37-5.23zm12.54-7.84l-8.36 5.24-.52-.85 8.36-5.24zm12.55-7.86l-8.37 5.24-.52-.85 8.36-5.25zm12.55-7.85l-8.37 5.23-.53-.84 8.37-5.24zm12.54-7.86l-8.35 5.23-.53-.85 8.36-5.24zm12.56-7.87l-8.36 5.24-.53-.85 8.36-5.23zm12.55-7.85l-8.36 5.24-.53-.85 8.38-5.24zm12.55-7.86l-8.36 5.24-.54-.85 8.37-5.23zm12.55-7.85l-8.36 5.23-.53-.84 8.37-5.24zm12.55-7.86l-8.37 5.25-.53-.85 8.37-5.24zm8.36-5.23l-4.17 2.62-.53-.86 4.18-2.62z" stroke="#333" stroke-width=".05" fill="#333"/><path d="M628.57 800.42l-.74.46.04-.6-.02-.6.2-.1z" fill="#333"/><path d="M628.6 800.43l-.8.5.05-.66-.02-.6.22-.13zm-.72-.73l.02.57-.04.56.68-.42-.5-.8zM1033.54 558.78l-.88-.46 8.8-17-19.15.47-.02-1 20.84-.53z" stroke="#333" stroke-width=".05" fill="#333"/><use xlink:href="#j" transform="matrix(1,0,0,1,806.8781028049091,659.5994210242333) translate(0 14.222222222222223)"/><path d="M160 523.47v-127.1M160 523.46v.5" stroke="#3a414a" fill="none"/><path d="M160 381.62l4.63 14.26h-9.26z" stroke="#3a414a" fill="#fff"/><path d="M182 559.75c0 10.9-8.84 19.75-19.75 19.75-10.9 0-19.75-8.84-19.75-19.75 0-10.9 8.84-19.75 19.75-19.75 10.9 0 19.75 8.84 19.75 19.75z" stroke="#333" fill="#fff"/><path d="M162.25 579.5v50.3a17.25 17.25 0 0 0 2.67 9.23L202.25 698m-40-63.2l-40 63.2m0-98.75h80" stroke="#333" fill="none"/><path d="M122.25 545a5 5 0 0 1 5-5h70a5 5 0 0 1 5 5v170a5 5 0 0 1-5 5h-70a5 5 0 0 1-5-5z" fill="none"/><g><use xlink:href="#v" transform="matrix(1,0,0,1,42.24689182138903,698) translate(75.58024691358024 14.888888888888888)"/></g><path d="M179.75 199.75c0 10.9-8.84 19.75-19.75 19.75-10.9 0-19.75-8.84-19.75-19.75 0-10.9 8.84-19.75 19.75-19.75 10.9 0 19.75 8.84 19.75 19.75z" stroke="#333" fill="#fff"/><path d="M160 219.5v50.3a17.25 17.25 0 0 0 2.67 9.22L200 338m-40-63.2L120 338m0-98.75h80" stroke="#333" fill="none"/><path d="M120 185a5 5 0 0 1 5-5h70a5 5 0 0 1 5 5v170a5 5 0 0 1-5 5h-70a5 5 0 0 1-5-5z" fill="none"/><g><use xlink:href="#w" transform="matrix(1,0,0,1,40,338) translate(87.4320987654321 14.888888888888888)"/></g><path d="M183.37 920.02c0 10.9-8.84 19.75-19.75 19.75-10.9 0-19.75-8.85-19.75-19.75s8.84-19.75 19.75-19.75c10.9 0 19.75 8.84 19.75 19.75z" stroke="#333" fill="#fff"/><path d="M163.62 939.77v50.3a17.25 17.25 0 0 0 2.67 9.22l37.32 58.97m-40-63.2l-40 63.2m0-98.75h80" stroke="#333" fill="none"/><path d="M123.62 905.27a5 5 0 0 1 5-5h70a5 5 0 0 1 5 5v170a5 5 0 0 1-5 5h-70a5 5 0 0 1-5-5z" fill="none"/><g><use xlink:href="#x" transform="matrix(1,0,0,1,43.61977736847098,1058.2660876909) translate(62.8395061728395 14.888888888888888)"/></g><path d="M163.3 879.5V756.38M163.3 879.5v.5" stroke="#3a414a" fill="none"/><path d="M163.3 741.62l4.64 14.26h-9.27z" stroke="#3a414a" fill="#fff"/><path d="M360 111a6 6 0 0 1 6-6h888a6 6 0 0 1 6 6v78a6 6 0 0 1-6 6H366a6 6 0 0 1-6-6z" stroke="#000" stroke-opacity="0" fill="#fff" fill-opacity="0"/><g><use xlink:href="#y" transform="matrix(1,0,0,1,365,110) translate(97.10802469135808 45.611111111111114)"/><use xlink:href="#z" transform="matrix(1,0,0,1,365,110) translate(246.1265432098766 45.611111111111114)"/><use xlink:href="#A" transform="matrix(1,0,0,1,365,110) translate(312.89197530864203 45.611111111111114)"/><use xlink:href="#B" transform="matrix(1,0,0,1,365,110) translate(353.0154320987655 45.611111111111114)"/><use xlink:href="#A" transform="matrix(1,0,0,1,365,110) translate(454.0462962962963 45.611111111111114)"/><use xlink:href="#C" transform="matrix(1,0,0,1,365,110) translate(494.16975308641975 45.611111111111114)"/><use xlink:href="#D" transform="matrix(1,0,0,1,365,110) translate(643.2685185185185 45.611111111111114)"/></g><defs><path fill="#3a414a" d="M212-179c-10-28-35-45-73-45-59 0-87 40-87 99 0 60 29 101 89 101 43 0 62-24 78-52l27 14C228-24 195 4 139 4 59 4 22-46 18-125c-6-104 99-153 187-111 19 9 31 26 39 46" id="E"/><path fill="#3a414a" d="M100-194c62-1 85 37 85 99 1 63-27 99-86 99S16-35 15-95c0-66 28-99 85-99zM99-20c44 1 53-31 53-75 0-43-8-75-51-75s-53 32-53 75 10 74 51 75" id="F"/><path fill="#3a414a" d="M117-194c89-4 53 116 60 194h-32v-121c0-31-8-49-39-48C34-167 62-67 57 0H25l-1-190h30c1 10-1 24 2 32 11-22 29-35 61-36" id="G"/><path fill="#3a414a" d="M135-143c-3-34-86-38-87 0 15 53 115 12 119 90S17 21 10-45l28-5c4 36 97 45 98 0-10-56-113-15-118-90-4-57 82-63 122-42 12 7 21 19 24 35" id="H"/><path fill="#3a414a" d="M84 4C-5 8 30-112 23-190h32v120c0 31 7 50 39 49 72-2 45-101 50-169h31l1 190h-30c-1-10 1-25-2-33-11 22-28 36-60 37" id="I"/><path fill="#3a414a" d="M24 0v-261h32V0H24" id="J"/><path fill="#3a414a" d="M59-47c-2 24 18 29 38 22v24C64 9 27 4 27-40v-127H5v-23h24l9-43h21v43h35v23H59v120" id="K"/><path fill="#3a414a" d="M100-194c63 0 86 42 84 106H49c0 40 14 67 53 68 26 1 43-12 49-29l28 8c-11 28-37 45-77 45C44 4 14-33 15-96c1-61 26-98 85-98zm52 81c6-60-76-77-97-28-3 7-6 17-6 28h103" id="L"/><path fill="#3a414a" d="M114-163C36-179 61-72 57 0H25l-1-190h30c1 12-1 29 2 39 6-27 23-49 58-41v29" id="M"/><g id="a"><use transform="matrix(0.06172839506172839,0,0,0.06172839506172839,0,0)" xlink:href="#E"/><use transform="matrix(0.06172839506172839,0,0,0.06172839506172839,15.987654320987653,0)" xlink:href="#F"/><use transform="matrix(0.06172839506172839,0,0,0.06172839506172839,28.333333333333332,0)" xlink:href="#G"/><use transform="matrix(0.06172839506172839,0,0,0.06172839506172839,40.67901234567901,0)" xlink:href="#H"/><use transform="matrix(0.06172839506172839,0,0,0.06172839506172839,51.79012345679013,0)" xlink:href="#I"/><use transform="matrix(0.06172839506172839,0,0,0.06172839506172839,64.13580246913581,0)" xlink:href="#J"/><use transform="matrix(0.06172839506172839,0,0,0.06172839506172839,69.01234567901236,0)" xlink:href="#K"/><use transform="matrix(0.06172839506172839,0,0,0.06172839506172839,75.18518518518519,0)" xlink:href="#L"/><use transform="matrix(0.06172839506172839,0,0,0.06172839506172839,87.53086419753087,0)" xlink:href="#M"/></g><g id="b"><use transform="matrix(0.06172839506172839,0,0,0.06172839506172839,0,0)" xlink:href="#J"/><use transform="matrix(0.06172839506172839,0,0,0.06172839506172839,4.876543209876543,0)" xlink:href="#L"/><use transform="matrix(0.06172839506172839,0,0,0.06172839506172839,17.22222222222222,0)" xlink:href="#H"/></g><path fill="#3a414a" d="M96-169c-40 0-48 33-48 73s9 75 48 75c24 0 41-14 43-38l32 2c-6 37-31 61-74 61-59 0-76-41-82-99-10-93 101-131 147-64 4 7 5 14 7 22l-32 3c-4-21-16-35-41-35" id="N"/><g id="c"><use transform="matrix(0.06172839506172839,0,0,0.06172839506172839,0,0)" xlink:href="#M"/><use transform="matrix(0.06172839506172839,0,0,0.06172839506172839,7.345679012345679,0)" xlink:href="#L"/><use transform="matrix(0.06172839506172839,0,0,0.06172839506172839,19.691358024691358,0)" xlink:href="#H"/><use transform="matrix(0.06172839506172839,0,0,0.06172839506172839,30.80246913580247,0)" xlink:href="#H"/><use transform="matrix(0.06172839506172839,0,0,0.06172839506172839,41.91358024691358,0)" xlink:href="#F"/><use transform="matrix(0.06172839506172839,0,0,0.06172839506172839,54.25925925925926,0)" xlink:href="#I"/><use transform="matrix(0.06172839506172839,0,0,0.06172839506172839,66.60493827160494,0)" xlink:href="#M"/><use transform="matrix(0.06172839506172839,0,0,0.06172839506172839,73.95061728395062,0)" xlink:href="#N"/><use transform="matrix(0.06172839506172839,0,0,0.06172839506172839,85.06172839506173,0)" xlink:href="#L"/><use transform="matrix(0.06172839506172839,0,0,0.06172839506172839,97.40740740740742,0)" xlink:href="#H"/></g><path fill="#3a414a" d="M33 0v-248h34V0H33" id="O"/><path fill="#3a414a" d="M85-194c31 0 48 13 60 33l-1-100h32l1 261h-30c-2-10 0-23-3-31C134-8 116 4 85 4 32 4 16-35 15-94c0-66 23-100 70-100zm9 24c-40 0-46 34-46 75 0 40 6 74 45 74 42 0 51-32 51-76 0-42-9-74-50-73" id="P"/><path fill="#3a414a" d="M24-231v-30h32v30H24zM24 0v-190h32V0H24" id="Q"/><path fill="#3a414a" d="M101-234c-31-9-42 10-38 44h38v23H63V0H32v-167H5v-23h27c-7-52 17-82 69-68v24" id="R"/><path fill="#3a414a" d="M141-36C126-15 110 5 73 4 37 3 15-17 15-53c-1-64 63-63 125-63 3-35-9-54-41-54-24 1-41 7-42 31l-33-3c5-37 33-52 76-52 45 0 72 20 72 64v82c-1 20 7 32 28 27v20c-31 9-61-2-59-35zM48-53c0 20 12 33 32 33 41-3 63-29 60-74-43 2-92-5-92 41" id="S"/><g id="d"><use transform="matrix(0.06172839506172839,0,0,0.06172839506172839,0,0)" xlink:href="#O"/><use transform="matrix(0.06172839506172839,0,0,0.06172839506172839,6.172839506172839,0)" xlink:href="#P"/><use transform="matrix(0.06172839506172839,0,0,0.06172839506172839,18.51851851851852,0)" xlink:href="#L"/><use transform="matrix(0.06172839506172839,0,0,0.06172839506172839,30.864197530864196,0)" xlink:href="#G"/><use transform="matrix(0.06172839506172839,0,0,0.06172839506172839,43.20987654320987,0)" xlink:href="#K"/><use transform="matrix(0.06172839506172839,0,0,0.06172839506172839,49.382716049382715,0)" xlink:href="#Q"/><use transform="matrix(0.06172839506172839,0,0,0.06172839506172839,54.25925925925926,0)" xlink:href="#R"/><use transform="matrix(0.06172839506172839,0,0,0.06172839506172839,60.4320987654321,0)" xlink:href="#Q"/><use transform="matrix(0.06172839506172839,0,0,0.06172839506172839,65.30864197530865,0)" xlink:href="#N"/><use transform="matrix(0.06172839506172839,0,0,0.06172839506172839,76.41975308641976,0)" xlink:href="#S"/><use transform="matrix(0.06172839506172839,0,0,0.06172839506172839,88.76543209876544,0)" xlink:href="#K"/><use transform="matrix(0.06172839506172839,0,0,0.06172839506172839,94.93827160493828,0)" xlink:href="#Q"/><use transform="matrix(0.06172839506172839,0,0,0.06172839506172839,99.81481481481482,0)" xlink:href="#F"/><use transform="matrix(0.06172839506172839,0,0,0.06172839506172839,112.16049382716051,0)" xlink:href="#G"/></g><path fill="#3a414a" d="M205 0l-28-72H64L36 0H1l101-248h38L239 0h-34zm-38-99l-47-123c-12 45-31 82-46 123h93" id="T"/><path fill="#3a414a" d="M24-231v-30h32v30H24zM-9 49c24 4 33-6 33-30v-209h32V24c2 40-23 58-65 49V49" id="U"/><g id="e"><use transform="matrix(0.06172839506172839,0,0,0.06172839506172839,0,0)" xlink:href="#T"/><use transform="matrix(0.06172839506172839,0,0,0.06172839506172839,14.814814814814813,0)" xlink:href="#U"/><use transform="matrix(0.06172839506172839,0,0,0.06172839506172839,19.691358024691354,0)" xlink:href="#F"/><use transform="matrix(0.06172839506172839,0,0,0.06172839506172839,32.03703703703703,0)" xlink:href="#I"/><use transform="matrix(0.06172839506172839,0,0,0.06172839506172839,44.38271604938271,0)" xlink:href="#K"/><use transform="matrix(0.06172839506172839,0,0,0.06172839506172839,50.55555555555555,0)" xlink:href="#L"/><use transform="matrix(0.06172839506172839,0,0,0.06172839506172839,62.90123456790123,0)" xlink:href="#M"/></g><g id="f"><use transform="matrix(0.06172839506172839,0,0,0.06172839506172839,0,0)" xlink:href="#I"/><use transform="matrix(0.06172839506172839,0,0,0.06172839506172839,12.345679012345679,0)" xlink:href="#G"/><use transform="matrix(0.06172839506172839,0,0,0.06172839506172839,24.691358024691358,0)" xlink:href="#L"/></g><g id="g"><use transform="matrix(0.06172839506172839,0,0,0.06172839506172839,0,0)" xlink:href="#M"/><use transform="matrix(0.06172839506172839,0,0,0.06172839506172839,7.345679012345679,0)" xlink:href="#L"/><use transform="matrix(0.06172839506172839,0,0,0.06172839506172839,19.691358024691358,0)" xlink:href="#H"/><use transform="matrix(0.06172839506172839,0,0,0.06172839506172839,30.80246913580247,0)" xlink:href="#H"/><use transform="matrix(0.06172839506172839,0,0,0.06172839506172839,41.91358024691358,0)" xlink:href="#F"/><use transform="matrix(0.06172839506172839,0,0,0.06172839506172839,54.25925925925926,0)" xlink:href="#I"/><use transform="matrix(0.06172839506172839,0,0,0.06172839506172839,66.60493827160494,0)" xlink:href="#M"/><use transform="matrix(0.06172839506172839,0,0,0.06172839506172839,73.95061728395062,0)" xlink:href="#N"/><use transform="matrix(0.06172839506172839,0,0,0.06172839506172839,85.06172839506173,0)" xlink:href="#L"/></g><path fill="#3a414a" d="M240 0l2-218c-23 76-54 145-80 218h-23L58-218 59 0H30v-248h44l77 211c21-75 51-140 76-211h43V0h-30" id="V"/><g id="h"><use transform="matrix(0.06172839506172839,0,0,0.06172839506172839,0,0)" xlink:href="#V"/><use transform="matrix(0.06172839506172839,0,0,0.06172839506172839,18.456790123456788,0)" xlink:href="#F"/><use transform="matrix(0.06172839506172839,0,0,0.06172839506172839,30.80246913580247,0)" xlink:href="#P"/><use transform="matrix(0.06172839506172839,0,0,0.06172839506172839,43.148148148148145,0)" xlink:href="#Q"/><use transform="matrix(0.06172839506172839,0,0,0.06172839506172839,48.02469135802469,0)" xlink:href="#R"/><use transform="matrix(0.06172839506172839,0,0,0.06172839506172839,54.19753086419753,0)" xlink:href="#Q"/><use transform="matrix(0.06172839506172839,0,0,0.06172839506172839,59.074074074074076,0)" xlink:href="#N"/><use transform="matrix(0.06172839506172839,0,0,0.06172839506172839,70.18518518518519,0)" xlink:href="#S"/><use transform="matrix(0.06172839506172839,0,0,0.06172839506172839,82.53086419753087,0)" xlink:href="#K"/><use transform="matrix(0.06172839506172839,0,0,0.06172839506172839,88.70370370370371,0)" xlink:href="#Q"/><use transform="matrix(0.06172839506172839,0,0,0.06172839506172839,93.58024691358025,0)" xlink:href="#F"/><use transform="matrix(0.06172839506172839,0,0,0.06172839506172839,105.92592592592594,0)" xlink:href="#G"/></g><path fill="#3a414a" d="M47-170H22l-4-78h33" id="W"/><g id="i"><use transform="matrix(0.06172839506172839,0,0,0.06172839506172839,0,0)" xlink:href="#P"/><use transform="matrix(0.06172839506172839,0,0,0.06172839506172839,12.345679012345679,0)" xlink:href="#W"/><use transform="matrix(0.06172839506172839,0,0,0.06172839506172839,16.54320987654321,0)" xlink:href="#I"/><use transform="matrix(0.06172839506172839,0,0,0.06172839506172839,28.888888888888886,0)" xlink:href="#G"/><use transform="matrix(0.06172839506172839,0,0,0.06172839506172839,41.23456790123456,0)" xlink:href="#L"/></g><path fill="#333" d="M14 0l48-248h34L48 0H14" id="X"/><path fill="#333" d="M67-158c22-48 132-52 116 29L158 0h-32l25-140c3-38-53-32-70-12C52-117 51-52 38 0H6l36-190h30" id="Y"/><path fill="#333" d="M44-68c0 29 11 47 38 47 30 0 42-19 51-41l28 9C148-21 126 4 82 4 31 4 10-29 12-85c3-77 74-140 146-93 12 8 15 23 18 40l-31 5c-1-22-13-36-36-36-52 0-65 49-65 101" id="Z"/><path fill="#333" d="M6 0l50-261h32L37 0H6" id="aa"/><path fill="#333" d="M67 3c-93-2-31-127-26-193h32L48-50c-3 39 53 32 70 12 30-34 30-101 43-152h32L157 0h-30c1-10 6-24 4-33-14 20-29 37-64 36" id="ab"/><path fill="#333" d="M133-28C103 26-5 8 13-77c13-62 24-115 90-117 29-1 46 15 56 35l19-102h32L160 0h-30zM45-64c-2 27 10 43 35 43 54-1 69-50 69-103 0-29-15-46-42-46-53-1-58 58-62 106" id="ac"/><path fill="#333" d="M111-194c62-3 86 47 72 106H45c-7 38 6 69 45 68 27-1 43-14 53-32l24 11C152-15 129 4 87 4 38 3 12-23 12-71c0-70 32-119 99-123zm44 81c14-66-71-72-95-28-4 8-8 17-11 28h106" id="ad"/><g id="j"><use transform="matrix(0.04938271604938272,0,0,0.04938271604938272,0,0)" xlink:href="#X"/><use transform="matrix(0.04938271604938272,0,0,0.04938271604938272,4.938271604938272,0)" xlink:href="#Y"/><use transform="matrix(0.04938271604938272,0,0,0.04938271604938272,14.814814814814817,0)" xlink:href="#Z"/><use transform="matrix(0.04938271604938272,0,0,0.04938271604938272,23.703703703703706,0)" xlink:href="#aa"/><use transform="matrix(0.04938271604938272,0,0,0.04938271604938272,27.60493827160494,0)" xlink:href="#ab"/><use transform="matrix(0.04938271604938272,0,0,0.04938271604938272,37.48148148148148,0)" xlink:href="#ac"/><use transform="matrix(0.04938271604938272,0,0,0.04938271604938272,47.358024691358025,0)" xlink:href="#ad"/></g><path fill="#3a414a" d="M106-169C34-169 62-67 57 0H25v-261h32l-1 103c12-21 28-36 61-36 89 0 53 116 60 194h-32v-121c2-32-8-49-39-48" id="ae"/><g id="k"><use transform="matrix(0.06172839506172839,0,0,0.06172839506172839,0,0)" xlink:href="#R"/><use transform="matrix(0.06172839506172839,0,0,0.06172839506172839,6.172839506172839,0)" xlink:href="#Q"/><use transform="matrix(0.06172839506172839,0,0,0.06172839506172839,11.049382716049383,0)" xlink:href="#N"/><use transform="matrix(0.06172839506172839,0,0,0.06172839506172839,22.160493827160494,0)" xlink:href="#ae"/><use transform="matrix(0.06172839506172839,0,0,0.06172839506172839,34.50617283950617,0)" xlink:href="#Q"/><use transform="matrix(0.06172839506172839,0,0,0.06172839506172839,39.382716049382715,0)" xlink:href="#L"/><use transform="matrix(0.06172839506172839,0,0,0.06172839506172839,51.72839506172839,0)" xlink:href="#M"/><use transform="matrix(0.06172839506172839,0,0,0.06172839506172839,59.07407407407407,0)" xlink:href="#H"/></g><g id="l"><use transform="matrix(0.06172839506172839,0,0,0.06172839506172839,0,0)" xlink:href="#T"/><use transform="matrix(0.06172839506172839,0,0,0.06172839506172839,14.814814814814813,0)" xlink:href="#U"/><use transform="matrix(0.06172839506172839,0,0,0.06172839506172839,19.691358024691354,0)" xlink:href="#F"/><use transform="matrix(0.06172839506172839,0,0,0.06172839506172839,32.03703703703703,0)" xlink:href="#I"/><use transform="matrix(0.06172839506172839,0,0,0.06172839506172839,44.38271604938271,0)" xlink:href="#K"/></g><g id="m"><use transform="matrix(0.06172839506172839,0,0,0.06172839506172839,0,0)" xlink:href="#O"/><use transform="matrix(0.06172839506172839,0,0,0.06172839506172839,6.172839506172839,0)" xlink:href="#G"/><use transform="matrix(0.06172839506172839,0,0,0.06172839506172839,18.51851851851852,0)" xlink:href="#H"/><use transform="matrix(0.06172839506172839,0,0,0.06172839506172839,29.62962962962963,0)" xlink:href="#N"/><use transform="matrix(0.06172839506172839,0,0,0.06172839506172839,40.74074074074074,0)" xlink:href="#M"/><use transform="matrix(0.06172839506172839,0,0,0.06172839506172839,48.08641975308642,0)" xlink:href="#Q"/><use transform="matrix(0.06172839506172839,0,0,0.06172839506172839,52.96296296296296,0)" xlink:href="#M"/><use transform="matrix(0.06172839506172839,0,0,0.06172839506172839,60.30864197530864,0)" xlink:href="#L"/></g><g id="n"><use transform="matrix(0.06172839506172839,0,0,0.06172839506172839,0,0)" xlink:href="#I"/><use transform="matrix(0.06172839506172839,0,0,0.06172839506172839,12.345679012345679,0)" xlink:href="#G"/></g><path fill="#3a414a" d="M100-194c63 0 86 42 84 106H49c0 40 14 67 53 68 26 1 43-12 49-29l28 8c-11 28-37 45-77 45C44 4 14-33 15-96c1-61 26-98 85-98zm52 81c6-60-76-77-97-28-3 7-6 17-6 28h103zm-74-98c8-23 27-35 38-54h36v5l-58 49H78" id="af"/><g id="o"><use transform="matrix(0.06172839506172839,0,0,0.06172839506172839,0,0)" xlink:href="#af"/><use transform="matrix(0.06172839506172839,0,0,0.06172839506172839,12.345679012345679,0)" xlink:href="#K"/><use transform="matrix(0.06172839506172839,0,0,0.06172839506172839,18.51851851851852,0)" xlink:href="#I"/><use transform="matrix(0.06172839506172839,0,0,0.06172839506172839,30.864197530864196,0)" xlink:href="#P"/><use transform="matrix(0.06172839506172839,0,0,0.06172839506172839,43.20987654320987,0)" xlink:href="#Q"/><use transform="matrix(0.06172839506172839,0,0,0.06172839506172839,48.08641975308642,0)" xlink:href="#S"/><use transform="matrix(0.06172839506172839,0,0,0.06172839506172839,60.432098765432094,0)" xlink:href="#G"/><use transform="matrix(0.06172839506172839,0,0,0.06172839506172839,72.77777777777777,0)" xlink:href="#K"/></g><path fill="#3a414a" d="M0 4l72-265h28L28 4H0" id="ag"/><use transform="matrix(0.06172839506172839,0,0,0.06172839506172839,0,0)" xlink:href="#ag" id="p"/><path fill="#3a414a" d="M30 0v-248h187v28H63v79h144v27H63v87h162V0H30" id="ah"/><path fill="#3a414a" d="M177-190C167-65 218 103 67 71c-23-6-38-20-44-43l32-5c15 47 100 32 89-28v-30C133-14 115 1 83 1 29 1 15-40 15-95c0-56 16-97 71-98 29-1 48 16 59 35 1-10 0-23 2-32h30zM94-22c36 0 50-32 50-73 0-42-14-75-50-75-39 0-46 34-46 75s6 73 46 73" id="ai"/><g id="q"><use transform="matrix(0.06172839506172839,0,0,0.06172839506172839,0,0)" xlink:href="#ah"/><use transform="matrix(0.06172839506172839,0,0,0.06172839506172839,14.814814814814813,0)" xlink:href="#G"/><use transform="matrix(0.06172839506172839,0,0,0.06172839506172839,27.160493827160494,0)" xlink:href="#H"/><use transform="matrix(0.06172839506172839,0,0,0.06172839506172839,38.27160493827161,0)" xlink:href="#L"/><use transform="matrix(0.06172839506172839,0,0,0.06172839506172839,50.617283950617285,0)" xlink:href="#Q"/><use transform="matrix(0.06172839506172839,0,0,0.06172839506172839,55.49382716049383,0)" xlink:href="#ai"/><use transform="matrix(0.06172839506172839,0,0,0.06172839506172839,67.8395061728395,0)" xlink:href="#G"/><use transform="matrix(0.06172839506172839,0,0,0.06172839506172839,80.18518518518519,0)" xlink:href="#S"/><use transform="matrix(0.06172839506172839,0,0,0.06172839506172839,92.53086419753087,0)" xlink:href="#G"/><use transform="matrix(0.06172839506172839,0,0,0.06172839506172839,104.87654320987656,0)" xlink:href="#K"/></g><path fill="#3a414a" d="M30-248c118-7 216 8 213 122C240-48 200 0 122 0H30v-248zM63-27c89 8 146-16 146-99s-60-101-146-95v194" id="aj"/><path fill="#3a414a" d="M108 0H70L1-190h34L89-25l56-165h34" id="ak"/><g id="r"><use transform="matrix(0.06172839506172839,0,0,0.06172839506172839,0,0)" xlink:href="#aj"/><use transform="matrix(0.06172839506172839,0,0,0.06172839506172839,15.987654320987653,0)" xlink:href="#af"/><use transform="matrix(0.06172839506172839,0,0,0.06172839506172839,28.333333333333332,0)" xlink:href="#H"/><use transform="matrix(0.06172839506172839,0,0,0.06172839506172839,39.44444444444444,0)" xlink:href="#S"/><use transform="matrix(0.06172839506172839,0,0,0.06172839506172839,51.79012345679012,0)" xlink:href="#N"/><use transform="matrix(0.06172839506172839,0,0,0.06172839506172839,62.90123456790123,0)" xlink:href="#K"/><use transform="matrix(0.06172839506172839,0,0,0.06172839506172839,69.07407407407406,0)" xlink:href="#Q"/><use transform="matrix(0.06172839506172839,0,0,0.06172839506172839,73.9506172839506,0)" xlink:href="#ak"/><use transform="matrix(0.06172839506172839,0,0,0.06172839506172839,85.06172839506172,0)" xlink:href="#L"/><use transform="matrix(0.06172839506172839,0,0,0.06172839506172839,97.4074074074074,0)" xlink:href="#M"/></g><path fill="#3a414a" d="M210-169c-67 3-38 105-44 169h-31v-121c0-29-5-50-35-48C34-165 62-65 56 0H25l-1-190h30c1 10-1 24 2 32 10-44 99-50 107 0 11-21 27-35 58-36 85-2 47 119 55 194h-31v-121c0-29-5-49-35-48" id="al"/><path fill="#3a414a" d="M115-194c55 1 70 41 70 98S169 2 115 4C84 4 66-9 55-30l1 105H24l-1-265h31l2 30c10-21 28-34 59-34zm-8 174c40 0 45-34 45-75s-6-73-45-74c-42 0-51 32-51 76 0 43 10 73 51 73" id="am"/><g id="s"><use transform="matrix(0.06172839506172839,0,0,0.06172839506172839,0,0)" xlink:href="#N"/><use transform="matrix(0.06172839506172839,0,0,0.06172839506172839,11.11111111111111,0)" xlink:href="#F"/><use transform="matrix(0.06172839506172839,0,0,0.06172839506172839,23.45679012345679,0)" xlink:href="#al"/><use transform="matrix(0.06172839506172839,0,0,0.06172839506172839,41.91358024691358,0)" xlink:href="#am"/><use transform="matrix(0.06172839506172839,0,0,0.06172839506172839,54.25925925925926,0)" xlink:href="#K"/><use transform="matrix(0.06172839506172839,0,0,0.06172839506172839,60.4320987654321,0)" xlink:href="#L"/></g><path fill="#3a414a" d="M185-189c-5-48-123-54-124 2 14 75 158 14 163 119 3 78-121 87-175 55-17-10-28-26-33-46l33-7c5 56 141 63 141-1 0-78-155-14-162-118-5-82 145-84 179-34 5 7 8 16 11 25" id="an"/><g id="t"><use transform="matrix(0.06172839506172839,0,0,0.06172839506172839,0,0)" xlink:href="#an"/><use transform="matrix(0.06172839506172839,0,0,0.06172839506172839,14.814814814814813,0)" xlink:href="#I"/><use transform="matrix(0.06172839506172839,0,0,0.06172839506172839,27.160493827160494,0)" xlink:href="#am"/><use transform="matrix(0.06172839506172839,0,0,0.06172839506172839,39.50617283950617,0)" xlink:href="#am"/><use transform="matrix(0.06172839506172839,0,0,0.06172839506172839,51.85185185185185,0)" xlink:href="#M"/><use transform="matrix(0.06172839506172839,0,0,0.06172839506172839,59.197530864197525,0)" xlink:href="#Q"/><use transform="matrix(0.06172839506172839,0,0,0.06172839506172839,64.07407407407406,0)" xlink:href="#al"/><use transform="matrix(0.06172839506172839,0,0,0.06172839506172839,82.53086419753085,0)" xlink:href="#L"/><use transform="matrix(0.06172839506172839,0,0,0.06172839506172839,94.87654320987653,0)" xlink:href="#M"/></g><g id="u"><use transform="matrix(0.06172839506172839,0,0,0.06172839506172839,0,0)" xlink:href="#I"/><use transform="matrix(0.06172839506172839,0,0,0.06172839506172839,12.345679012345679,0)" xlink:href="#G"/><use transform="matrix(0.06172839506172839,0,0,0.06172839506172839,24.691358024691358,0)" xlink:href="#L"/></g><path fill="#333" d="M11 0l48-248h184l-5 28H87l-15 79h140l-5 27H67L50-27h158l-5 27H11" id="ao"/><path fill="#333" d="M55-144c13 50 104 24 104 88C159 21 15 23 1-39l26-10c6 40 102 42 102-4-13-50-104-23-104-87 0-71 143-71 148-8l-29 4c-5-35-85-37-89 0" id="ap"/><path fill="#333" d="M50-231l6-30h32l-6 30H50zM6 0l37-190h31L37 0H6" id="aq"/><path fill="#333" d="M103-194c29 0 47 14 56 36 2-11 5-23 8-32h30L160-5C157 61 82 97 21 62 9 55 4 45 1 30l28-7c7 42 83 31 92-3 4-16 9-38 13-55-13 20-29 36-62 36-40 0-60-25-60-64 0-71 23-131 91-131zm4 24c-53 0-58 54-61 104-2 27 10 44 36 44 49 0 65-50 67-102 1-29-15-46-42-46" id="ar"/><path fill="#333" d="M165-48c-4 18 1 34 23 27l-3 20c-29 8-62 0-52-35h-2C116-14 99 4 63 4 30 4 8-16 8-49c0-68 71-67 138-67 10-26 0-56-31-54-26 1-42 9-47 31l-32-5c8-67 160-71 144 15-5 28-9 54-15 81zM42-50c3 52 80 24 89-6 7-12 7-24 11-38-47 1-103-4-100 44" id="as"/><path fill="#333" d="M51-54c-9 22 5 41 31 30L79-1C43 14 10-4 19-52l22-115H19l5-23h22l19-43h21l-9 43h35l-4 23H73" id="at"/><g id="v"><use transform="matrix(0.04938271604938272,0,0,0.04938271604938272,0,0)" xlink:href="#ao"/><use transform="matrix(0.04938271604938272,0,0,0.04938271604938272,11.851851851851853,0)" xlink:href="#Y"/><use transform="matrix(0.04938271604938272,0,0,0.04938271604938272,21.7283950617284,0)" xlink:href="#ap"/><use transform="matrix(0.04938271604938272,0,0,0.04938271604938272,30.617283950617285,0)" xlink:href="#ad"/><use transform="matrix(0.04938271604938272,0,0,0.04938271604938272,40.49382716049384,0)" xlink:href="#aq"/><use transform="matrix(0.04938271604938272,0,0,0.04938271604938272,44.39506172839507,0)" xlink:href="#ar"/><use transform="matrix(0.04938271604938272,0,0,0.04938271604938272,54.27160493827161,0)" xlink:href="#Y"/><use transform="matrix(0.04938271604938272,0,0,0.04938271604938272,64.14814814814815,0)" xlink:href="#as"/><use transform="matrix(0.04938271604938272,0,0,0.04938271604938272,74.0246913580247,0)" xlink:href="#Y"/><use transform="matrix(0.04938271604938272,0,0,0.04938271604938272,83.90123456790124,0)" xlink:href="#at"/></g><g id="w"><use transform="matrix(0.04938271604938272,0,0,0.04938271604938272,0,0)" xlink:href="#ao"/><use transform="matrix(0.04938271604938272,0,0,0.04938271604938272,11.851851851851853,0)" xlink:href="#at"/><use transform="matrix(0.04938271604938272,0,0,0.04938271604938272,16.790123456790127,0)" xlink:href="#ab"/><use transform="matrix(0.04938271604938272,0,0,0.04938271604938272,26.666666666666668,0)" xlink:href="#ac"/><use transform="matrix(0.04938271604938272,0,0,0.04938271604938272,36.543209876543216,0)" xlink:href="#aq"/><use transform="matrix(0.04938271604938272,0,0,0.04938271604938272,40.44444444444445,0)" xlink:href="#as"/><use transform="matrix(0.04938271604938272,0,0,0.04938271604938272,50.320987654320994,0)" xlink:href="#Y"/><use transform="matrix(0.04938271604938272,0,0,0.04938271604938272,60.19753086419754,0)" xlink:href="#at"/></g><path fill="#333" d="M187 0l-14-72H61L19 0h-37l149-248h38L221 0h-34zm-19-99l-22-123L76-99h92" id="au"/><path fill="#333" d="M248-111c6-24 9-61-24-58-72 9-57 108-77 169h-31l26-142c3-37-50-30-64-10C52-115 50-51 37 0H6l36-190h30c-1 10-6 24-4 32 13-43 101-52 105 5 13-22 29-41 61-41 90 0 28 129 23 194h-31" id="av"/><path fill="#333" d="M66-151c12-25 30-51 66-40l-6 26C45-176 58-65 38 0H6l36-190h30" id="aw"/><g id="x"><use transform="matrix(0.04938271604938272,0,0,0.04938271604938272,0,0)" xlink:href="#au"/><use transform="matrix(0.04938271604938272,0,0,0.04938271604938272,11.851851851851853,0)" xlink:href="#ac"/><use transform="matrix(0.04938271604938272,0,0,0.04938271604938272,21.7283950617284,0)" xlink:href="#av"/><use transform="matrix(0.04938271604938272,0,0,0.04938271604938272,36.49382716049384,0)" xlink:href="#aq"/><use transform="matrix(0.04938271604938272,0,0,0.04938271604938272,40.39506172839507,0)" xlink:href="#Y"/><use transform="matrix(0.04938271604938272,0,0,0.04938271604938272,50.271604938271615,0)" xlink:href="#aq"/><use transform="matrix(0.04938271604938272,0,0,0.04938271604938272,54.17283950617284,0)" xlink:href="#ap"/><use transform="matrix(0.04938271604938272,0,0,0.04938271604938272,63.061728395061735,0)" xlink:href="#at"/><use transform="matrix(0.04938271604938272,0,0,0.04938271604938272,68,0)" xlink:href="#aw"/><use transform="matrix(0.04938271604938272,0,0,0.04938271604938272,73.87654320987654,0)" xlink:href="#as"/><use transform="matrix(0.04938271604938272,0,0,0.04938271604938272,83.75308641975309,0)" xlink:href="#at"/><use transform="matrix(0.04938271604938272,0,0,0.04938271604938272,88.69135802469137,0)" xlink:href="#ad"/><use transform="matrix(0.04938271604938272,0,0,0.04938271604938272,98.56790123456791,0)" xlink:href="#ab"/><use transform="matrix(0.04938271604938272,0,0,0.04938271604938272,108.44444444444446,0)" xlink:href="#aw"/></g><g id="y"><use transform="matrix(0.08024691358024691,0,0,0.08024691358024691,0,0)" xlink:href="#T"/><use transform="matrix(0.08024691358024691,0,0,0.08024691358024691,19.25925925925926,0)" xlink:href="#am"/><use transform="matrix(0.08024691358024691,0,0,0.08024691358024691,35.308641975308646,0)" xlink:href="#am"/><use transform="matrix(0.08024691358024691,0,0,0.08024691358024691,51.358024691358025,0)" xlink:href="#J"/><use transform="matrix(0.08024691358024691,0,0,0.08024691358024691,57.697530864197525,0)" xlink:href="#Q"/><use transform="matrix(0.08024691358024691,0,0,0.08024691358024691,64.03703703703704,0)" xlink:href="#N"/><use transform="matrix(0.08024691358024691,0,0,0.08024691358024691,78.48148148148148,0)" xlink:href="#S"/><use transform="matrix(0.08024691358024691,0,0,0.08024691358024691,94.53086419753086,0)" xlink:href="#K"/><use transform="matrix(0.08024691358024691,0,0,0.08024691358024691,102.55555555555554,0)" xlink:href="#Q"/><use transform="matrix(0.08024691358024691,0,0,0.08024691358024691,108.89506172839505,0)" xlink:href="#F"/><use transform="matrix(0.08024691358024691,0,0,0.08024691358024691,124.94444444444444,0)" xlink:href="#G"/></g><path fill="#3a414a" d="M266 0h-40l-56-210L115 0H75L2-248h35L96-30l15-64 43-154h32l59 218 59-218h35" id="ax"/><path fill="#3a414a" d="M115-194c53 0 69 39 70 98 0 66-23 100-70 100C84 3 66-7 56-30L54 0H23l1-261h32v101c10-23 28-34 59-34zm-8 174c40 0 45-34 45-75 0-40-5-75-45-74-42 0-51 32-51 76 0 43 10 73 51 73" id="ay"/><g id="z"><use transform="matrix(0.08024691358024691,0,0,0.08024691358024691,0,0)" xlink:href="#ax"/><use transform="matrix(0.08024691358024691,0,0,0.08024691358024691,26.641975308641975,0)" xlink:href="#L"/><use transform="matrix(0.08024691358024691,0,0,0.08024691358024691,42.691358024691354,0)" xlink:href="#ay"/></g><g id="A"><use transform="matrix(0.08024691358024691,0,0,0.08024691358024691,0,0)" xlink:href="#P"/><use transform="matrix(0.08024691358024691,0,0,0.08024691358024691,16.049382716049383,0)" xlink:href="#L"/></g><g id="B"><use transform="matrix(0.08024691358024691,0,0,0.08024691358024691,0,0)" xlink:href="#ai"/><use transform="matrix(0.08024691358024691,0,0,0.08024691358024691,16.049382716049383,0)" xlink:href="#L"/><use transform="matrix(0.08024691358024691,0,0,0.08024691358024691,32.098765432098766,0)" xlink:href="#H"/><use transform="matrix(0.08024691358024691,0,0,0.08024691358024691,46.54320987654321,0)" xlink:href="#K"/><use transform="matrix(0.08024691358024691,0,0,0.08024691358024691,54.5679012345679,0)" xlink:href="#Q"/><use transform="matrix(0.08024691358024691,0,0,0.08024691358024691,60.907407407407405,0)" xlink:href="#F"/><use transform="matrix(0.08024691358024691,0,0,0.08024691358024691,76.95679012345678,0)" xlink:href="#G"/></g><g id="C"><use transform="matrix(0.08024691358024691,0,0,0.08024691358024691,0,0)" xlink:href="#M"/><use transform="matrix(0.08024691358024691,0,0,0.08024691358024691,9.549382716049383,0)" xlink:href="#L"/><use transform="matrix(0.08024691358024691,0,0,0.08024691358024691,25.598765432098762,0)" xlink:href="#H"/><use transform="matrix(0.08024691358024691,0,0,0.08024691358024691,40.04320987654321,0)" xlink:href="#H"/><use transform="matrix(0.08024691358024691,0,0,0.08024691358024691,54.48765432098765,0)" xlink:href="#F"/><use transform="matrix(0.08024691358024691,0,0,0.08024691358024691,70.53703703703704,0)" xlink:href="#I"/><use transform="matrix(0.08024691358024691,0,0,0.08024691358024691,86.58641975308642,0)" xlink:href="#M"/><use transform="matrix(0.08024691358024691,0,0,0.08024691358024691,96.1358024691358,0)" xlink:href="#N"/><use transform="matrix(0.08024691358024691,0,0,0.08024691358024691,110.58024691358024,0)" xlink:href="#L"/><use transform="matrix(0.08024691358024691,0,0,0.08024691358024691,126.62962962962962,0)" xlink:href="#H"/></g><path fill="#3a414a" d="M145-31C134-9 116 4 85 4 32 4 16-35 15-94c0-59 17-99 70-100 32-1 48 14 60 33 0-11-1-24 2-32h30l-1 268h-32zM93-21c41 0 51-33 51-76s-8-73-50-73c-40 0-46 35-46 75s5 74 45 74" id="az"/><g id="D"><use transform="matrix(0.08024691358024691,0,0,0.08024691358024691,0,0)" xlink:href="#G"/><use transform="matrix(0.08024691358024691,0,0,0.08024691358024691,16.049382716049383,0)" xlink:href="#I"/><use transform="matrix(0.08024691358024691,0,0,0.08024691358024691,32.098765432098766,0)" xlink:href="#al"/><use transform="matrix(0.08024691358024691,0,0,0.08024691358024691,56.092592592592595,0)" xlink:href="#af"/><use transform="matrix(0.08024691358024691,0,0,0.08024691358024691,72.14197530864197,0)" xlink:href="#M"/><use transform="matrix(0.08024691358024691,0,0,0.08024691358024691,81.69135802469135,0)" xlink:href="#Q"/><use transform="matrix(0.08024691358024691,0,0,0.08024691358024691,88.03086419753086,0)" xlink:href="#az"/><use transform="matrix(0.08024691358024691,0,0,0.08024691358024691,104.08024691358024,0)" xlink:href="#I"/><use transform="matrix(0.08024691358024691,0,0,0.08024691358024691,120.12962962962962,0)" xlink:href="#L"/><use transform="matrix(0.08024691358024691,0,0,0.08024691358024691,136.179012345679,0)" xlink:href="#H"/></g></defs></g></svg>